Flux-Ultra Expanded.ufo
<glyph name="zero" format="2">
  <advance width="1528"/>
  <unicode hex="0030"/>
  <outline>
    <contour>
      <point x="30" y="524" type="curve" smooth="yes"/>
      <point x="30" y="166" type="line"/>
      <point x="30" y="137"/>
      <point x="52" y="115"/>
      <point x="81" y="115" type="curve" smooth="yes"/>
      <point x="94" y="115" type="line" smooth="yes"/>
      <point x="123" y="115"/>
      <point x="145" y="93"/>
      <point x="145" y="64" type="curve" smooth="yes"/>
      <point x="145" y="51" type="line" smooth="yes"/>
      <point x="145" y="22"/>
      <point x="167" y="0"/>
      <point x="196" y="0" type="curve" smooth="yes"/>
      <point x="1331" y="0" type="line" smooth="yes"/>
      <point x="1360" y="0"/>
      <point x="1383" y="22"/>
      <point x="1383" y="51" type="curve" smooth="yes"/>
      <point x="1383" y="64" type="line" smooth="yes"/>
      <point x="1383" y="93"/>
      <point x="1405" y="115"/>
      <point x="1434" y="115" type="curve" smooth="yes"/>
      <point x="1447" y="115" type="line" smooth="yes"/>
      <point x="1476" y="115"/>
      <point x="1498" y="137"/>
      <point x="1498" y="166" type="curve" smooth="yes"/>
      <point x="1498" y="524" type="line" smooth="yes"/>
      <point x="1498" y="553"/>
      <point x="1476" y="575"/>
      <point x="1447" y="575" type="curve" smooth="yes"/>
      <point x="1434" y="575" type="line" smooth="yes"/>
      <point x="1405" y="575"/>
      <point x="1383" y="597"/>
      <point x="1383" y="626" type="curve" smooth="yes"/>
      <point x="1383" y="639" type="line" smooth="yes"/>
      <point x="1383" y="668"/>
      <point x="1360" y="690"/>
      <point x="1331" y="690" type="curve" smooth="yes"/>
      <point x="196" y="690" type="line" smooth="yes"/>
      <point x="167" y="690"/>
      <point x="145" y="668"/>
      <point x="145" y="639" type="curve" smooth="yes"/>
      <point x="145" y="626" type="line" smooth="yes"/>
      <point x="145" y="597"/>
      <point x="123" y="575"/>
      <point x="94" y="575" type="curve" smooth="yes"/>
      <point x="81" y="575" type="line" smooth="yes"/>
      <point x="52" y="575"/>
      <point x="30" y="553"/>
    </contour>
    <contour>
      <point x="145" y="166" type="curve" smooth="yes"/>
      <point x="145" y="294" type="line" smooth="yes"/>
      <point x="145" y="323"/>
      <point x="167" y="345"/>
      <point x="196" y="345" type="curve" smooth="yes"/>
      <point x="757" y="345" type="line" smooth="yes"/>
      <point x="786" y="345"/>
      <point x="808" y="323"/>
      <point x="808" y="294" type="curve" smooth="yes"/>
      <point x="808" y="281" type="line" smooth="yes"/>
      <point x="808" y="252"/>
      <point x="831" y="230"/>
      <point x="859" y="230" type="curve" smooth="yes"/>
      <point x="1332" y="230" type="line" smooth="yes"/>
      <point x="1361" y="230"/>
      <point x="1383" y="208"/>
      <point x="1383" y="179" type="curve" smooth="yes"/>
      <point x="1383" y="166" type="line" smooth="yes"/>
      <point x="1383" y="137"/>
      <point x="1361" y="115"/>
      <point x="1332" y="115" type="curve" smooth="yes"/>
      <point x="196" y="115" type="line" smooth="yes"/>
      <point x="167" y="115"/>
      <point x="145" y="137"/>
    </contour>
    <contour>
      <point x="145" y="511" type="curve" smooth="yes"/>
      <point x="145" y="524" type="line" smooth="yes"/>
      <point x="145" y="553"/>
      <point x="167" y="575"/>
      <point x="196" y="575" type="curve" smooth="yes"/>
      <point x="1332" y="575" type="line" smooth="yes"/>
      <point x="1361" y="575"/>
      <point x="1383" y="553"/>
      <point x="1383" y="524" type="curve" smooth="yes"/>
      <point x="1383" y="396" type="line" smooth="yes"/>
      <point x="1383" y="367"/>
      <point x="1361" y="345"/>
      <point x="1332" y="345" type="curve" smooth="yes"/>
      <point x="859" y="345" type="line" smooth="yes"/>
      <point x="831" y="345"/>
      <point x="808" y="367"/>
      <point x="808" y="396" type="curve" smooth="yes"/>
      <point x="808" y="409" type="line" smooth="yes"/>
      <point x="808" y="438"/>
      <point x="785" y="460"/>
      <point x="756" y="460" type="curve" smooth="yes"/>
      <point x="196" y="460" type="line" smooth="yes"/>
      <point x="167" y="460"/>
      <point x="145" y="482"/>
    </contour>
  </outline>
</glyph>
<glyph name="one" format="2">
  <advance width="1528"/>
  <unicode hex="0031"/>
  <outline>
    <contour>
      <point x="1434" y="0" type="curve" smooth="yes"/>
      <point x="1447" y="0" type="line"/>
      <point x="1476" y="0"/>
      <point x="1498" y="22"/>
      <point x="1498" y="51" type="curve" smooth="yes"/>
      <point x="1498" y="524" type="line" smooth="yes"/>
      <point x="1498" y="553"/>
      <point x="1476" y="575"/>
      <point x="1447" y="575" type="curve" smooth="yes"/>
      <point x="1434" y="575" type="line" smooth="yes"/>
      <point x="1405" y="575"/>
      <point x="1383" y="597"/>
      <point x="1383" y="626" type="curve" smooth="yes"/>
      <point x="1383" y="639" type="line" smooth="yes"/>
      <point x="1383" y="668"/>
      <point x="1361" y="690"/>
      <point x="1332" y="690" type="curve" smooth="yes"/>
      <point x="81" y="690" type="line" smooth="yes"/>
      <point x="52" y="690"/>
      <point x="30" y="668"/>
      <point x="30" y="639" type="curve" smooth="yes"/>
      <point x="30" y="626" type="line" smooth="yes"/>
      <point x="30" y="597"/>
      <point x="52" y="575"/>
      <point x="81" y="575" type="curve" smooth="yes"/>
      <point x="1332" y="575" type="line" smooth="yes"/>
      <point x="1361" y="575"/>
      <point x="1383" y="553"/>
      <point x="1383" y="524" type="curve" smooth="yes"/>
      <point x="1383" y="51" type="line" smooth="yes"/>
      <point x="1383" y="22"/>
      <point x="1405" y="0"/>
    </contour>
  </outline>
</glyph>
<glyph name="five" format="2">
  <advance width="1528"/>
  <unicode hex="0035"/>
  <outline>
    <contour>
      <point x="30" y="179" type="curve" smooth="yes"/>
      <point x="30" y="166" type="line"/>
      <point x="30" y="137"/>
      <point x="52" y="115"/>
      <point x="81" y="115" type="curve" smooth="yes"/>
      <point x="94" y="115" type="line" smooth="yes"/>
      <point x="123" y="115"/>
      <point x="145" y="93"/>
      <point x="145" y="64" type="curve" smooth="yes"/>
      <point x="145" y="51" type="line" smooth="yes"/>
      <point x="145" y="22"/>
      <point x="167" y="0"/>
      <point x="196" y="0" type="curve" smooth="yes"/>
      <point x="1332" y="0" type="line" smooth="yes"/>
      <point x="1361" y="0"/>
      <point x="1383" y="22"/>
      <point x="1383" y="51" type="curve" smooth="yes"/>
      <point x="1383" y="64" type="line" smooth="yes"/>
      <point x="1383" y="93"/>
      <point x="1405" y="115"/>
      <point x="1434" y="115" type="curve" smooth="yes"/>
      <point x="1447" y="115" type="line" smooth="yes"/>
      <point x="1476" y="115"/>
      <point x="1498" y="137"/>
      <point x="1498" y="166" type="curve" smooth="yes"/>
      <point x="1498" y="294" type="line" smooth="yes"/>
      <point x="1498" y="323"/>
      <point x="1476" y="345"/>
      <point x="1447" y="345" type="curve" smooth="yes"/>
      <point x="1434" y="345" type="line" smooth="yes"/>
      <point x="1405" y="345"/>
      <point x="1383" y="367"/>
      <point x="1383" y="396" type="curve" smooth="yes"/>
      <point x="1383" y="409" type="line" smooth="yes"/>
      <point x="1383" y="438"/>
      <point x="1361" y="460"/>
      <point x="1332" y="460" type="curve" smooth="yes"/>
      <point x="196" y="460" type="line" smooth="yes"/>
      <point x="167" y="460"/>
      <point x="145" y="482"/>
      <point x="145" y="511" type="curve" smooth="yes"/>
      <point x="145" y="524" type="line" smooth="yes"/>
      <point x="145" y="553"/>
      <point x="167" y="575"/>
      <point x="196" y="575" type="curve" smooth="yes"/>
      <point x="1447" y="575" type="line" smooth="yes"/>
      <point x="1476" y="575"/>
      <point x="1498" y="597"/>
      <point x="1498" y="626" type="curve" smooth="yes"/>
      <point x="1498" y="639" type="line" smooth="yes"/>
      <point x="1498" y="668"/>
      <point x="1476" y="690"/>
      <point x="1447" y="690" type="curve" smooth="yes"/>
      <point x="196" y="690" type="line" smooth="yes"/>
      <point x="167" y="690"/>
      <point x="145" y="668"/>
      <point x="145" y="639" type="curve" smooth="yes"/>
      <point x="145" y="626" type="line" smooth="yes"/>
      <point x="145" y="597"/>
      <point x="123" y="575"/>
      <point x="94" y="575" type="curve" smooth="yes"/>
      <point x="81" y="575" type="line" smooth="yes"/>
      <point x="52" y="575"/>
      <point x="30" y="553"/>
      <point x="30" y="524" type="curve" smooth="yes"/>
      <point x="30" y="396" type="line" smooth="yes"/>
      <point x="30" y="367"/>
      <point x="52" y="345"/>
      <point x="81" y="345" type="curve" smooth="yes"/>
      <point x="1332" y="345" type="line" smooth="yes"/>
      <point x="1361" y="345"/>
      <point x="1383" y="323"/>
      <point x="1383" y="294" type="curve" smooth="yes"/>
      <point x="1383" y="166" type="line" smooth="yes"/>
      <point x="1383" y="137"/>
      <point x="1361" y="115"/>
      <point x="1332" y="115" type="curve" smooth="yes"/>
      <point x="196" y="115" type="line" smooth="yes"/>
      <point x="167" y="115"/>
      <point x="145" y="137"/>
      <point x="145" y="166" type="curve" smooth="yes"/>
      <point x="145" y="179" type="line" smooth="yes"/>
      <point x="145" y="208"/>
      <point x="123" y="230"/>
      <point x="94" y="230" type="curve" smooth="yes"/>
      <point x="81" y="230" type="line" smooth="yes"/>
      <point x="52" y="230"/>
      <point x="30" y="208"/>
    </contour>
  </outline>
</glyph>
<glyph name="B" format="2">
  <advance width="1529"/>
  <unicode hex="0042"/>
  <outline>
    <contour>
      <point x="81" y="0" type="curve" smooth="yes"/>
      <point x="1333" y="0" type="line" smooth="yes"/>
      <point x="1362" y="0"/>
      <point x="1384" y="22"/>
      <point x="1384" y="51" type="curve" smooth="yes"/>
      <point x="1384" y="64" type="line" smooth="yes"/>
      <point x="1384" y="93"/>
      <point x="1406" y="115"/>
      <point x="1435" y="115" type="curve" smooth="yes"/>
      <point x="1448" y="115" type="line" smooth="yes"/>
      <point x="1477" y="115"/>
      <point x="1499" y="137"/>
      <point x="1499" y="166" type="curve" smooth="yes"/>
      <point x="1499" y="294" type="line" smooth="yes"/>
      <point x="1499" y="323"/>
      <point x="1477" y="345"/>
      <point x="1448" y="345" type="curve" smooth="yes"/>
      <point x="1435" y="345" type="line" smooth="yes"/>
      <point x="1406" y="345"/>
      <point x="1384" y="367"/>
      <point x="1384" y="396" type="curve" smooth="yes"/>
      <point x="1384" y="409" type="line" smooth="yes"/>
      <point x="1384" y="438"/>
      <point x="1406" y="460"/>
      <point x="1435" y="460" type="curve" smooth="yes"/>
      <point x="1448" y="460" type="line" smooth="yes"/>
      <point x="1477" y="460"/>
      <point x="1499" y="482"/>
      <point x="1499" y="511" type="curve" smooth="yes"/>
      <point x="1499" y="524" type="line" smooth="yes"/>
      <point x="1499" y="553"/>
      <point x="1477" y="575"/>
      <point x="1448" y="575" type="curve" smooth="yes"/>
      <point x="1435" y="575" type="line" smooth="yes"/>
      <point x="1406" y="575"/>
      <point x="1384" y="597"/>
      <point x="1384" y="626" type="curve" smooth="yes"/>
      <point x="1384" y="639" type="line" smooth="yes"/>
      <point x="1384" y="668"/>
      <point x="1362" y="690"/>
      <point x="1333" y="690" type="curve" smooth="yes"/>
      <point x="81" y="690" type="line" smooth="yes"/>
      <point x="52" y="690"/>
      <point x="30" y="668"/>
      <point x="30" y="639" type="curve" smooth="yes"/>
      <point x="30" y="511" type="line" smooth="yes"/>
      <point x="30" y="482"/>
      <point x="52" y="460"/>
      <point x="81" y="460" type="curve" smooth="yes"/>
      <point x="94" y="460" type="line" smooth="yes"/>
      <point x="123" y="460"/>
      <point x="145" y="438"/>
      <point x="145" y="409" type="curve" smooth="yes"/>
      <point x="145" y="396" type="line" smooth="yes"/>
      <point x="145" y="367"/>
      <point x="123" y="345"/>
      <point x="94" y="345" type="curve" smooth="yes"/>
      <point x="81" y="345" type="line" smooth="yes"/>
      <point x="52" y="345"/>
      <point x="30" y="323"/>
      <point x="30" y="294" type="curve" smooth="yes"/>
      <point x="30" y="51" type="line" smooth="yes"/>
      <point x="30" y="22"/>
      <point x="52" y="0"/>
    </contour>
    <contour>
      <point x="145" y="166" type="curve" smooth="yes"/>
      <point x="145" y="294" type="line" smooth="yes"/>
      <point x="145" y="323"/>
      <point x="167" y="345"/>
      <point x="196" y="345" type="curve" smooth="yes"/>
      <point x="1333" y="345" type="line" smooth="yes"/>
      <point x="1362" y="345"/>
      <point x="1384" y="323"/>
      <point x="1384" y="294" type="curve" smooth="yes"/>
      <point x="1384" y="166" type="line" smooth="yes"/>
      <point x="1384" y="137"/>
      <point x="1362" y="115"/>
      <point x="1333" y="115" type="curve" smooth="yes"/>
      <point x="196" y="115" type="line" smooth="yes"/>
      <point x="167" y="115"/>
      <point x="145" y="137"/>
    </contour>
    <contour>
      <point x="145" y="511" type="curve" smooth="yes"/>
      <point x="145" y="524" type="line" smooth="yes"/>
      <point x="145" y="553"/>
      <point x="167" y="575"/>
      <point x="196" y="575" type="curve" smooth="yes"/>
      <point x="1333" y="575" type="line" smooth="yes"/>
      <point x="1362" y="575"/>
      <point x="1384" y="553"/>
      <point x="1384" y="524" type="curve" smooth="yes"/>
      <point x="1384" y="511" type="line" smooth="yes"/>
      <point x="1384" y="482"/>
      <point x="1362" y="460"/>
      <point x="1333" y="460" type="curve" smooth="yes"/>
      <point x="196" y="460" type="line" smooth="yes"/>
      <point x="167" y="460"/>
      <point x="145" y="482"/>
    </contour>
  </outline>
</glyph>
<glyph name="C" format="2">
  <advance width="1527"/>
  <unicode hex="0043"/>
  <outline>
    <contour>
      <point x="30" y="524" type="curve" smooth="yes"/>
      <point x="30" y="51" type="line" smooth="yes"/>
      <point x="30" y="22"/>
      <point x="52" y="0"/>
      <point x="81" y="0" type="curve" smooth="yes"/>
      <point x="1330" y="0" type="line" smooth="yes"/>
      <point x="1359" y="0"/>
      <point x="1382" y="22"/>
      <point x="1382" y="51" type="curve" smooth="yes"/>
      <point x="1382" y="64" type="line" smooth="yes"/>
      <point x="1382" y="93"/>
      <point x="1404" y="115"/>
      <point x="1433" y="115" type="curve" smooth="yes"/>
      <point x="1446" y="115" type="line" smooth="yes"/>
      <point x="1475" y="115"/>
      <point x="1497" y="137"/>
      <point x="1497" y="166" type="curve" smooth="yes"/>
      <point x="1497" y="181" type="line" smooth="yes"/>
      <point x="1497" y="210"/>
      <point x="1475" y="230"/>
      <point x="1446" y="230" type="curve" smooth="yes"/>
      <point x="1433" y="230" type="line" smooth="yes"/>
      <point x="1404" y="230"/>
      <point x="1382" y="210"/>
      <point x="1382" y="181" type="curve" smooth="yes"/>
      <point x="1382" y="166" type="line" smooth="yes"/>
      <point x="1382" y="137"/>
      <point x="1360" y="115"/>
      <point x="1331" y="115" type="curve" smooth="yes"/>
      <point x="196" y="115" type="line" smooth="yes"/>
      <point x="167" y="115"/>
      <point x="145" y="137"/>
      <point x="145" y="166" type="curve" smooth="yes"/>
      <point x="145" y="524" type="line" smooth="yes"/>
      <point x="145" y="553"/>
      <point x="167" y="575"/>
      <point x="196" y="575" type="curve" smooth="yes"/>
      <point x="1331" y="575" type="line" smooth="yes"/>
      <point x="1360" y="575"/>
      <point x="1382" y="553"/>
      <point x="1382" y="524" type="curve" smooth="yes"/>
      <point x="1382" y="509" type="line" smooth="yes"/>
      <point x="1382" y="480"/>
      <point x="1404" y="460"/>
      <point x="1433" y="460" type="curve" smooth="yes"/>
      <point x="1446" y="460" type="line" smooth="yes"/>
      <point x="1475" y="460"/>
      <point x="1497" y="480"/>
      <point x="1497" y="509" type="curve" smooth="yes"/>
      <point x="1497" y="524" type="line" smooth="yes"/>
      <point x="1497" y="553"/>
      <point x="1475" y="575"/>
      <point x="1446" y="575" type="curve" smooth="yes"/>
      <point x="1433" y="575" type="line" smooth="yes"/>
      <point x="1404" y="575"/>
      <point x="1382" y="597"/>
      <point x="1382" y="626" type="curve" smooth="yes"/>
      <point x="1382" y="639" type="line" smooth="yes"/>
      <point x="1382" y="668"/>
      <point x="1359" y="690"/>
      <point x="1330" y="690" type="curve" smooth="yes"/>
      <point x="196" y="690" type="line" smooth="yes"/>
      <point x="167" y="690"/>
      <point x="145" y="668"/>
      <point x="145" y="639" type="curve" smooth="yes"/>
      <point x="145" y="626" type="line" smooth="yes"/>
      <point x="145" y="597"/>
      <point x="123" y="575"/>
      <point x="94" y="575" type="curve" smooth="yes"/>
      <point x="81" y="575" type="line" smooth="yes"/>
      <point x="52" y="575"/>
      <point x="30" y="553"/>
    </contour>
  </outline>
</glyph>
<glyph name="E" format="2">
  <advance width="1529"/>
  <unicode hex="0045"/>
  <outline>
    <contour>
      <point x="81" y="115" type="curve" smooth="yes"/>
      <point x="94" y="115" type="line" smooth="yes"/>
      <point x="123" y="115"/>
      <point x="145" y="93"/>
      <point x="145" y="64" type="curve" smooth="yes"/>
      <point x="145" y="51" type="line" smooth="yes"/>
      <point x="145" y="22"/>
      <point x="167" y="0"/>
      <point x="196" y="0" type="curve" smooth="yes"/>
      <point x="1448" y="0" type="line" smooth="yes"/>
      <point x="1477" y="0"/>
      <point x="1499" y="22"/>
      <point x="1499" y="51" type="curve" smooth="yes"/>
      <point x="1499" y="64" type="line" smooth="yes"/>
      <point x="1499" y="93"/>
      <point x="1477" y="115"/>
      <point x="1448" y="115" type="curve" smooth="yes"/>
      <point x="196" y="115" type="line" smooth="yes"/>
      <point x="167" y="115"/>
      <point x="145" y="137"/>
      <point x="145" y="166" type="curve" smooth="yes"/>
      <point x="145" y="294" type="line" smooth="yes"/>
      <point x="145" y="323"/>
      <point x="167" y="345"/>
      <point x="196" y="345" type="curve" smooth="yes"/>
      <point x="1448" y="345" type="line" smooth="yes"/>
      <point x="1477" y="345"/>
      <point x="1499" y="367"/>
      <point x="1499" y="396" type="curve" smooth="yes"/>
      <point x="1499" y="409" type="line" smooth="yes"/>
      <point x="1499" y="438"/>
      <point x="1477" y="460"/>
      <point x="1448" y="460" type="curve" smooth="yes"/>
      <point x="196" y="460" type="line" smooth="yes"/>
      <point x="167" y="460"/>
      <point x="145" y="482"/>
      <point x="145" y="511" type="curve" smooth="yes"/>
      <point x="145" y="524" type="line" smooth="yes"/>
      <point x="145" y="553"/>
      <point x="167" y="575"/>
      <point x="196" y="575" type="curve" smooth="yes"/>
      <point x="1448" y="575" type="line" smooth="yes"/>
      <point x="1477" y="575"/>
      <point x="1499" y="597"/>
      <point x="1499" y="626" type="curve" smooth="yes"/>
      <point x="1499" y="639" type="line" smooth="yes"/>
      <point x="1499" y="668"/>
      <point x="1477" y="690"/>
      <point x="1448" y="690" type="curve" smooth="yes"/>
      <point x="81" y="690" type="line" smooth="yes"/>
      <point x="52" y="690"/>
      <point x="30" y="668"/>
      <point x="30" y="639" type="curve" smooth="yes"/>
      <point x="30" y="511" type="line" smooth="yes"/>
      <point x="30" y="482"/>
      <point x="52" y="460"/>
      <point x="81" y="460" type="curve" smooth="yes"/>
      <point x="94" y="460" type="line" smooth="yes"/>
      <point x="123" y="460"/>
      <point x="145" y="438"/>
      <point x="145" y="409" type="curve" smooth="yes"/>
      <point x="145" y="396" type="line" smooth="yes"/>
      <point x="145" y="367"/>
      <point x="123" y="345"/>
      <point x="94" y="345" type="curve" smooth="yes"/>
      <point x="81" y="345" type="line" smooth="yes"/>
      <point x="52" y="345"/>
      <point x="30" y="323"/>
      <point x="30" y="294" type="curve" smooth="yes"/>
      <point x="30" y="166" type="line" smooth="yes"/>
      <point x="30" y="137"/>
      <point x="52" y="115"/>
    </contour>
  </outline>
</glyph>
<glyph name="F" format="2">
  <advance width="1529"/>
  <unicode hex="0046"/>
  <outline>
    <contour>
      <point x="30" y="294" type="curve" smooth="yes"/>
      <point x="30" y="51" type="line" smooth="yes"/>
      <point x="30" y="22"/>
      <point x="53" y="0"/>
      <point x="83" y="0" type="curve" smooth="yes"/>
      <point x="93" y="0" type="line" smooth="yes"/>
      <point x="123" y="0"/>
      <point x="145" y="22"/>
      <point x="145" y="51" type="curve" smooth="yes"/>
      <point x="145" y="294" type="line" smooth="yes"/>
      <point x="145" y="323"/>
      <point x="168" y="345"/>
      <point x="198" y="345" type="curve" smooth="yes"/>
      <point x="1332" y="345" type="line" smooth="yes"/>
      <point x="1362" y="345"/>
      <point x="1384" y="367"/>
      <point x="1384" y="396" type="curve" smooth="yes"/>
      <point x="1384" y="409" type="line" smooth="yes"/>
      <point x="1384" y="438"/>
      <point x="1362" y="460"/>
      <point x="1332" y="460" type="curve" smooth="yes"/>
      <point x="198" y="460" type="line" smooth="yes"/>
      <point x="168" y="460"/>
      <point x="145" y="482"/>
      <point x="145" y="511" type="curve" smooth="yes"/>
      <point x="145" y="524" type="line" smooth="yes"/>
      <point x="145" y="553"/>
      <point x="168" y="575"/>
      <point x="198" y="575" type="curve" smooth="yes"/>
      <point x="1446" y="575" type="line" smooth="yes"/>
      <point x="1476" y="575"/>
      <point x="1499" y="597"/>
      <point x="1499" y="626" type="curve" smooth="yes"/>
      <point x="1499" y="639" type="line" smooth="yes"/>
      <point x="1499" y="668"/>
      <point x="1476" y="690"/>
      <point x="1446" y="690" type="curve" smooth="yes"/>
      <point x="83" y="690" type="line" smooth="yes"/>
      <point x="53" y="690"/>
      <point x="30" y="668"/>
      <point x="30" y="639" type="curve" smooth="yes"/>
      <point x="30" y="511" type="line" smooth="yes"/>
      <point x="30" y="482"/>
      <point x="53" y="460"/>
      <point x="83" y="460" type="curve" smooth="yes"/>
      <point x="93" y="460" type="line" smooth="yes"/>
      <point x="123" y="460"/>
      <point x="145" y="438"/>
      <point x="145" y="409" type="curve" smooth="yes"/>
      <point x="145" y="396" type="line" smooth="yes"/>
      <point x="145" y="367"/>
      <point x="123" y="345"/>
      <point x="93" y="345" type="curve" smooth="yes"/>
      <point x="83" y="345" type="line" smooth="yes"/>
      <point x="53" y="345"/>
      <point x="30" y="323"/>
    </contour>
  </outline>
</glyph>
<glyph name="H" format="2">
  <advance width="1592"/>
  <unicode hex="0048"/>
  <outline>
    <contour>
      <point x="1511" y="690" type="curve" smooth="yes"/>
      <point x="1498" y="690" type="line" smooth="yes"/>
      <point x="1469" y="690"/>
      <point x="1447" y="668"/>
      <point x="1447" y="639" type="curve" smooth="yes"/>
      <point x="1447" y="511" type="line" smooth="yes"/>
      <point x="1447" y="482"/>
      <point x="1425" y="460"/>
      <point x="1396" y="460" type="curve" smooth="yes"/>
      <point x="196" y="460" type="line" smooth="yes"/>
      <point x="167" y="460"/>
      <point x="145" y="482"/>
      <point x="145" y="511" type="curve" smooth="yes"/>
      <point x="145" y="639" type="line" smooth="yes"/>
      <point x="145" y="668"/>
      <point x="123" y="690"/>
      <point x="94" y="690" type="curve" smooth="yes"/>
      <point x="81" y="690" type="line" smooth="yes"/>
      <point x="52" y="690"/>
      <point x="30" y="668"/>
      <point x="30" y="639" type="curve" smooth="yes"/>
      <point x="30" y="511" type="line" smooth="yes"/>
      <point x="30" y="482"/>
      <point x="52" y="460"/>
      <point x="81" y="460" type="curve" smooth="yes"/>
      <point x="94" y="460" type="line" smooth="yes"/>
      <point x="123" y="460"/>
      <point x="145" y="438"/>
      <point x="145" y="409" type="curve" smooth="yes"/>
      <point x="145" y="396" type="line" smooth="yes"/>
      <point x="145" y="367"/>
      <point x="123" y="345"/>
      <point x="94" y="345" type="curve" smooth="yes"/>
      <point x="81" y="345" type="line" smooth="yes"/>
      <point x="52" y="345"/>
      <point x="30" y="323"/>
      <point x="30" y="294" type="curve" smooth="yes"/>
      <point x="30" y="51" type="line" smooth="yes"/>
      <point x="30" y="22"/>
      <point x="52" y="0"/>
      <point x="81" y="0" type="curve" smooth="yes"/>
      <point x="94" y="0" type="line" smooth="yes"/>
      <point x="123" y="0"/>
      <point x="145" y="22"/>
      <point x="145" y="51" type="curve" smooth="yes"/>
      <point x="145" y="294" type="line" smooth="yes"/>
      <point x="145" y="323"/>
      <point x="167" y="345"/>
      <point x="196" y="345" type="curve" smooth="yes"/>
      <point x="1396" y="345" type="line" smooth="yes"/>
      <point x="1425" y="345"/>
      <point x="1447" y="323"/>
      <point x="1447" y="294" type="curve" smooth="yes"/>
      <point x="1447" y="51" type="line" smooth="yes"/>
      <point x="1447" y="22"/>
      <point x="1469" y="0"/>
      <point x="1498" y="0" type="curve" smooth="yes"/>
      <point x="1511" y="0" type="line" smooth="yes"/>
      <point x="1540" y="0"/>
      <point x="1562" y="22"/>
      <point x="1562" y="51" type="curve" smooth="yes"/>
      <point x="1562" y="639" type="line" smooth="yes"/>
      <point x="1562" y="668"/>
      <point x="1540" y="690"/>
    </contour>
  </outline>
</glyph>
<glyph name="M" format="2">
  <advance width="1529"/>
  <unicode hex="004D"/>
  <outline>
    <contour>
      <point x="30" y="51" type="curve" smooth="yes"/>
      <point x="30" y="524" type="line" smooth="yes"/>
      <point x="30" y="553"/>
      <point x="51" y="575"/>
      <point x="80" y="575" type="curve" smooth="yes"/>
      <point x="95" y="575" type="line" smooth="yes"/>
      <point x="124" y="575"/>
      <point x="145" y="597"/>
      <point x="145" y="626" type="curve" smooth="yes"/>
      <point x="145" y="639" type="line" smooth="yes"/>
      <point x="145" y="668"/>
      <point x="166" y="690"/>
      <point x="195" y="690" type="curve" smooth="yes"/>
      <point x="657" y="690" type="line" smooth="yes"/>
      <point x="686" y="690"/>
      <point x="707" y="668"/>
      <point x="707" y="639" type="curve" smooth="yes"/>
      <point x="707" y="626" type="line" smooth="yes"/>
      <point x="707" y="597"/>
      <point x="728" y="575"/>
      <point x="757" y="575" type="curve" smooth="yes"/>
      <point x="772" y="575" type="line" smooth="yes"/>
      <point x="801" y="575"/>
      <point x="822" y="597"/>
      <point x="822" y="626" type="curve" smooth="yes"/>
      <point x="822" y="639" type="line" smooth="yes"/>
      <point x="822" y="668"/>
      <point x="843" y="690"/>
      <point x="872" y="690" type="curve" smooth="yes"/>
      <point x="1334" y="690" type="line" smooth="yes"/>
      <point x="1363" y="690"/>
      <point x="1384" y="668"/>
      <point x="1384" y="639" type="curve" smooth="yes"/>
      <point x="1384" y="626" type="line" smooth="yes"/>
      <point x="1384" y="597"/>
      <point x="1405" y="575"/>
      <point x="1434" y="575" type="curve" smooth="yes"/>
      <point x="1449" y="575" type="line" smooth="yes"/>
      <point x="1478" y="575"/>
      <point x="1499" y="553"/>
      <point x="1499" y="524" type="curve" smooth="yes"/>
      <point x="1499" y="51" type="line" smooth="yes"/>
      <point x="1499" y="22"/>
      <point x="1478" y="0"/>
      <point x="1449" y="0" type="curve" smooth="yes"/>
      <point x="1434" y="0" type="line" smooth="yes"/>
      <point x="1405" y="0"/>
      <point x="1384" y="22"/>
      <point x="1384" y="51" type="curve" smooth="yes"/>
      <point x="1384" y="524" type="line" smooth="yes"/>
      <point x="1384" y="553"/>
      <point x="1363" y="575"/>
      <point x="1334" y="575" type="curve" smooth="yes"/>
      <point x="872" y="575" type="line" smooth="yes"/>
      <point x="843" y="575"/>
      <point x="822" y="553"/>
      <point x="822" y="524" type="curve" smooth="yes"/>
      <point x="822" y="51" type="line" smooth="yes"/>
      <point x="822" y="22"/>
      <point x="801" y="0"/>
      <point x="772" y="0" type="curve" smooth="yes"/>
      <point x="757" y="0" type="line" smooth="yes"/>
      <point x="728" y="0"/>
      <point x="707" y="22"/>
      <point x="707" y="51" type="curve" smooth="yes"/>
      <point x="707" y="524" type="line" smooth="yes"/>
      <point x="707" y="553"/>
      <point x="686" y="575"/>
      <point x="657" y="575" type="curve" smooth="yes"/>
      <point x="195" y="575" type="line" smooth="yes"/>
      <point x="166" y="575"/>
      <point x="145" y="553"/>
      <point x="145" y="524" type="curve" smooth="yes"/>
      <point x="145" y="51" type="line" smooth="yes"/>
      <point x="145" y="22"/>
      <point x="124" y="0"/>
      <point x="95" y="0" type="curve" smooth="yes"/>
      <point x="80" y="0" type="line" smooth="yes"/>
      <point x="51" y="0"/>
      <point x="30" y="22"/>
    </contour>
  </outline>
</glyph>
<glyph name="Q" format="2">
  <advance width="1528"/>
  <unicode hex="0051"/>
  <outline>
    <contour>
      <point x="145" y="64" type="curve" smooth="yes"/>
      <point x="145" y="51" type="line" smooth="yes"/>
      <point x="145" y="22"/>
      <point x="167" y="0"/>
      <point x="196" y="0" type="curve" smooth="yes"/>
      <point x="975" y="0" type="line" smooth="yes"/>
      <point x="1004" y="0"/>
      <point x="1026" y="22"/>
      <point x="1026" y="51" type="curve" smooth="yes"/>
      <point x="1026" y="64" type="line" smooth="yes"/>
      <point x="1026" y="93"/>
      <point x="1048" y="115"/>
      <point x="1077" y="115" type="curve" smooth="yes"/>
      <point x="1332" y="115" type="line" smooth="yes"/>
      <point x="1361" y="115"/>
      <point x="1383" y="93"/>
      <point x="1383" y="64" type="curve" smooth="yes"/>
      <point x="1383" y="51" type="line" smooth="yes"/>
      <point x="1383" y="22"/>
      <point x="1405" y="0"/>
      <point x="1434" y="0" type="curve" smooth="yes"/>
      <point x="1447" y="0" type="line" smooth="yes"/>
      <point x="1476" y="0"/>
      <point x="1498" y="22"/>
      <point x="1498" y="51" type="curve" smooth="yes"/>
      <point x="1498" y="64" type="line" smooth="yes"/>
      <point x="1498" y="93"/>
      <point x="1476" y="115"/>
      <point x="1447" y="115" type="curve" smooth="yes"/>
      <point x="1434" y="115" type="line" smooth="yes"/>
      <point x="1405" y="115"/>
      <point x="1383" y="137"/>
      <point x="1383" y="166" type="curve" smooth="yes"/>
      <point x="1383" y="177" type="line" smooth="yes"/>
      <point x="1383" y="207"/>
      <point x="1405" y="228"/>
      <point x="1435" y="228" type="curve" smooth="yes"/>
      <point x="1446" y="228" type="line" smooth="yes"/>
      <point x="1475" y="228"/>
      <point x="1498" y="251"/>
      <point x="1498" y="280" type="curve" smooth="yes"/>
      <point x="1498" y="525" type="line" smooth="yes"/>
      <point x="1498" y="554"/>
      <point x="1477" y="576"/>
      <point x="1448" y="576" type="curve" smooth="yes"/>
      <point x="1433" y="576" type="line" smooth="yes"/>
      <point x="1404" y="576"/>
      <point x="1383" y="597"/>
      <point x="1383" y="626" type="curve" smooth="yes"/>
      <point x="1383" y="639" type="line" smooth="yes"/>
      <point x="1383" y="668"/>
      <point x="1361" y="690"/>
      <point x="1332" y="690" type="curve" smooth="yes"/>
      <point x="196" y="690" type="line" smooth="yes"/>
      <point x="167" y="690"/>
      <point x="145" y="668"/>
      <point x="145" y="639" type="curve" smooth="yes"/>
      <point x="145" y="626" type="line" smooth="yes"/>
      <point x="145" y="597"/>
      <point x="123" y="575"/>
      <point x="94" y="575" type="curve" smooth="yes"/>
      <point x="81" y="575" type="line" smooth="yes"/>
      <point x="52" y="575"/>
      <point x="30" y="553"/>
      <point x="30" y="524" type="curve" smooth="yes"/>
      <point x="30" y="166" type="line" smooth="yes"/>
      <point x="30" y="137"/>
      <point x="52" y="115"/>
      <point x="81" y="115" type="curve" smooth="yes"/>
      <point x="94" y="115" type="line" smooth="yes"/>
      <point x="123" y="115"/>
      <point x="145" y="93"/>
    </contour>
    <contour>
      <point x="145" y="166" type="curve" smooth="yes"/>
      <point x="145" y="524" type="line" smooth="yes"/>
      <point x="145" y="553"/>
      <point x="167" y="575"/>
      <point x="196" y="575" type="curve" smooth="yes"/>
      <point x="1332" y="575" type="line" smooth="yes"/>
      <point x="1361" y="575"/>
      <point x="1383" y="553"/>
      <point x="1383" y="524" type="curve" smooth="yes"/>
      <point x="1383" y="281" type="line" smooth="yes"/>
      <point x="1383" y="252"/>
      <point x="1361" y="230"/>
      <point x="1332" y="230" type="curve" smooth="yes"/>
      <point x="1077" y="230" type="line" smooth="yes"/>
      <point x="1048" y="230"/>
      <point x="1026" y="208"/>
      <point x="1026" y="179" type="curve" smooth="yes"/>
      <point x="1026" y="166" type="line" smooth="yes"/>
      <point x="1026" y="137"/>
      <point x="1004" y="115"/>
      <point x="975" y="115" type="curve" smooth="yes"/>
      <point x="196" y="115" type="line" smooth="yes"/>
      <point x="167" y="115"/>
      <point x="145" y="137"/>
    </contour>
  </outline>
</glyph>
<glyph name="U" format="2">
  <advance width="1528"/>
  <unicode hex="0055"/>
  <outline>
    <contour>
      <point x="1383" y="639" type="curve" smooth="yes"/>
      <point x="1383" y="166" type="line" smooth="yes"/>
      <point x="1383" y="137"/>
      <point x="1361" y="115"/>
      <point x="1332" y="115" type="curve" smooth="yes"/>
      <point x="196" y="115" type="line" smooth="yes"/>
      <point x="167" y="115"/>
      <point x="145" y="137"/>
      <point x="145" y="166" type="curve" smooth="yes"/>
      <point x="145" y="639" type="line" smooth="yes"/>
      <point x="145" y="668"/>
      <point x="123" y="690"/>
      <point x="94" y="690" type="curve" smooth="yes"/>
      <point x="81" y="690" type="line" smooth="yes"/>
      <point x="52" y="690"/>
      <point x="30" y="668"/>
      <point x="30" y="639" type="curve" smooth="yes"/>
      <point x="30" y="166" type="line" smooth="yes"/>
      <point x="30" y="137"/>
      <point x="52" y="115"/>
      <point x="81" y="115" type="curve" smooth="yes"/>
      <point x="94" y="115" type="line" smooth="yes"/>
      <point x="123" y="115"/>
      <point x="145" y="93"/>
      <point x="145" y="64" type="curve" smooth="yes"/>
      <point x="145" y="51" type="line" smooth="yes"/>
      <point x="145" y="22"/>
      <point x="167" y="0"/>
      <point x="196" y="0" type="curve" smooth="yes"/>
      <point x="1447" y="0" type="line" smooth="yes"/>
      <point x="1476" y="0"/>
      <point x="1498" y="22"/>
      <point x="1498" y="51" type="curve" smooth="yes"/>
      <point x="1498" y="639" type="line" smooth="yes"/>
      <point x="1498" y="668"/>
      <point x="1476" y="690"/>
      <point x="1447" y="690" type="curve" smooth="yes"/>
      <point x="1434" y="690" type="line" smooth="yes"/>
      <point x="1405" y="690"/>
      <point x="1383" y="668"/>
    </contour>
  </outline>
</glyph>
<glyph name="Y" format="2">
  <advance width="1528"/>
  <unicode hex="0059"/>
  <outline>
    <contour>
      <point x="30" y="179" type="curve" smooth="yes"/>
      <point x="30" y="166" type="line"/>
      <point x="30" y="137"/>
      <point x="52" y="115"/>
      <point x="81" y="115" type="curve" smooth="yes"/>
      <point x="94" y="115" type="line" smooth="yes"/>
      <point x="123" y="115"/>
      <point x="145" y="93"/>
      <point x="145" y="64" type="curve" smooth="yes"/>
      <point x="145" y="51" type="line" smooth="yes"/>
      <point x="145" y="22"/>
      <point x="167" y="0"/>
      <point x="196" y="0" type="curve" smooth="yes"/>
      <point x="1447" y="0" type="line" smooth="yes"/>
      <point x="1476" y="0"/>
      <point x="1498" y="22"/>
      <point x="1498" y="51" type="curve" smooth="yes"/>
      <point x="1498" y="639" type="line" smooth="yes"/>
      <point x="1498" y="668"/>
      <point x="1476" y="690"/>
      <point x="1447" y="690" type="curve" smooth="yes"/>
      <point x="1434" y="690" type="line" smooth="yes"/>
      <point x="1405" y="690"/>
      <point x="1383" y="668"/>
      <point x="1383" y="639" type="curve" smooth="yes"/>
      <point x="1383" y="396" type="line" smooth="yes"/>
      <point x="1383" y="367"/>
      <point x="1361" y="345"/>
      <point x="1332" y="345" type="curve" smooth="yes"/>
      <point x="196" y="345" type="line" smooth="yes"/>
      <point x="167" y="345"/>
      <point x="145" y="367"/>
      <point x="145" y="396" type="curve" smooth="yes"/>
      <point x="145" y="639" type="line" smooth="yes"/>
      <point x="145" y="668"/>
      <point x="123" y="690"/>
      <point x="94" y="690" type="curve" smooth="yes"/>
      <point x="81" y="690" type="line" smooth="yes"/>
      <point x="52" y="690"/>
      <point x="30" y="668"/>
      <point x="30" y="639" type="curve" smooth="yes"/>
      <point x="30" y="396" type="line" smooth="yes"/>
      <point x="30" y="367"/>
      <point x="52" y="345"/>
      <point x="81" y="345" type="curve" smooth="yes"/>
      <point x="94" y="345" type="line" smooth="yes"/>
      <point x="123" y="345"/>
      <point x="145" y="323"/>
      <point x="145" y="294" type="curve" smooth="yes"/>
      <point x="145" y="281" type="line" smooth="yes"/>
      <point x="145" y="252"/>
      <point x="167" y="230"/>
      <point x="196" y="230" type="curve" smooth="yes"/>
      <point x="1332" y="230" type="line" smooth="yes"/>
      <point x="1361" y="230"/>
      <point x="1383" y="208"/>
      <point x="1383" y="179" type="curve" smooth="yes"/>
      <point x="1383" y="166" type="line" smooth="yes"/>
      <point x="1383" y="137"/>
      <point x="1360" y="115"/>
      <point x="1331" y="115" type="curve" smooth="yes"/>
      <point x="196" y="115" type="line" smooth="yes"/>
      <point x="167" y="115"/>
      <point x="145" y="137"/>
      <point x="145" y="166" type="curve" smooth="yes"/>
      <point x="145" y="179" type="line" smooth="yes"/>
      <point x="145" y="208"/>
      <point x="123" y="230"/>
      <point x="94" y="230" type="curve" smooth="yes"/>
      <point x="81" y="230" type="line" smooth="yes"/>
      <point x="52" y="230"/>
      <point x="30" y="208"/>
    </contour>
  </outline>
</glyph>
<glyph name="Z" format="2">
  <advance width="1528"/>
  <unicode hex="005A"/>
  <outline>
    <contour>
      <point x="81" y="0" type="curve" smooth="yes"/>
      <point x="1447" y="0" type="line" smooth="yes"/>
      <point x="1476" y="0"/>
      <point x="1498" y="22"/>
      <point x="1498" y="51" type="curve" smooth="yes"/>
      <point x="1498" y="64" type="line" smooth="yes"/>
      <point x="1498" y="93"/>
      <point x="1476" y="115"/>
      <point x="1447" y="115" type="curve" smooth="yes"/>
      <point x="196" y="115" type="line" smooth="yes"/>
      <point x="167" y="115"/>
      <point x="145" y="137"/>
      <point x="145" y="166" type="curve" smooth="yes"/>
      <point x="145" y="294" type="line" smooth="yes"/>
      <point x="145" y="323"/>
      <point x="167" y="345"/>
      <point x="196" y="345" type="curve" smooth="yes"/>
      <point x="1332" y="345" type="line" smooth="yes"/>
      <point x="1361" y="345"/>
      <point x="1383" y="367"/>
      <point x="1383" y="396" type="curve" smooth="yes"/>
      <point x="1383" y="409" type="line" smooth="yes"/>
      <point x="1383" y="438"/>
      <point x="1405" y="460"/>
      <point x="1434" y="460" type="curve" smooth="yes"/>
      <point x="1447" y="460" type="line" smooth="yes"/>
      <point x="1476" y="460"/>
      <point x="1498" y="482"/>
      <point x="1498" y="511" type="curve" smooth="yes"/>
      <point x="1498" y="639" type="line" smooth="yes"/>
      <point x="1498" y="668"/>
      <point x="1476" y="690"/>
      <point x="1447" y="690" type="curve" smooth="yes"/>
      <point x="81" y="690" type="line" smooth="yes"/>
      <point x="52" y="690"/>
      <point x="30" y="668"/>
      <point x="30" y="639" type="curve" smooth="yes"/>
      <point x="30" y="626" type="line" smooth="yes"/>
      <point x="30" y="597"/>
      <point x="52" y="575"/>
      <point x="81" y="575" type="curve" smooth="yes"/>
      <point x="1332" y="575" type="line" smooth="yes"/>
      <point x="1361" y="575"/>
      <point x="1383" y="553"/>
      <point x="1383" y="524" type="curve" smooth="yes"/>
      <point x="1383" y="511" type="line" smooth="yes"/>
      <point x="1383" y="482"/>
      <point x="1361" y="460"/>
      <point x="1332" y="460" type="curve" smooth="yes"/>
      <point x="196" y="460" type="line" smooth="yes"/>
      <point x="167" y="460"/>
      <point x="145" y="438"/>
      <point x="145" y="409" type="curve" smooth="yes"/>
      <point x="145" y="396" type="line" smooth="yes"/>
      <point x="145" y="367"/>
      <point x="123" y="345"/>
      <point x="94" y="345" type="curve" smooth="yes"/>
      <point x="81" y="345" type="line" smooth="yes"/>
      <point x="52" y="345"/>
      <point x="30" y="323"/>
      <point x="30" y="294" type="curve" smooth="yes"/>
      <point x="30" y="51" type="line" smooth="yes"/>
      <point x="30" y="22"/>
      <point x="52" y="0"/>
    </contour>
  </outline>
</glyph>
<glyph name="d" format="2">
  <advance width="1528"/>
  <unicode hex="0064"/>
  <outline>
    <contour>
      <point x="94" y="460" type="curve" smooth="yes"/>
      <point x="81" y="460" type="line"/>
      <point x="52" y="460"/>
      <point x="30" y="438"/>
      <point x="30" y="409" type="curve" smooth="yes"/>
      <point x="30" y="166" type="line" smooth="yes"/>
      <point x="30" y="137"/>
      <point x="52" y="115"/>
      <point x="81" y="115" type="curve" smooth="yes"/>
      <point x="94" y="115" type="line" smooth="yes"/>
      <point x="123" y="115"/>
      <point x="145" y="93"/>
      <point x="145" y="64" type="curve" smooth="yes"/>
      <point x="145" y="51" type="line" smooth="yes"/>
      <point x="145" y="22"/>
      <point x="167" y="0"/>
      <point x="196" y="0" type="curve" smooth="yes"/>
      <point x="1447" y="0" type="line" smooth="yes"/>
      <point x="1476" y="0"/>
      <point x="1498" y="22"/>
      <point x="1498" y="51" type="curve" smooth="yes"/>
      <point x="1498" y="409" type="line" smooth="yes"/>
      <point x="1498" y="438"/>
      <point x="1476" y="460"/>
      <point x="1447" y="460" type="curve" smooth="yes"/>
      <point x="1434" y="460" type="line" smooth="yes"/>
      <point x="1405" y="460"/>
      <point x="1383" y="482"/>
      <point x="1383" y="511" type="curve" smooth="yes"/>
      <point x="1383" y="524" type="line" smooth="yes"/>
      <point x="1383" y="553"/>
      <point x="1405" y="575"/>
      <point x="1434" y="575" type="curve" smooth="yes"/>
      <point x="1447" y="575" type="line" smooth="yes"/>
      <point x="1476" y="575"/>
      <point x="1498" y="597"/>
      <point x="1498" y="626" type="curve" smooth="yes"/>
      <point x="1498" y="754" type="line" smooth="yes"/>
      <point x="1498" y="783"/>
      <point x="1476" y="805"/>
      <point x="1447" y="805" type="curve" smooth="yes"/>
      <point x="1434" y="805" type="line" smooth="yes"/>
      <point x="1405" y="805"/>
      <point x="1383" y="783"/>
      <point x="1383" y="754" type="curve" smooth="yes"/>
      <point x="1383" y="626" type="line" smooth="yes"/>
      <point x="1383" y="597"/>
      <point x="1361" y="575"/>
      <point x="1332" y="575" type="curve" smooth="yes"/>
      <point x="196" y="575" type="line" smooth="yes"/>
      <point x="168" y="575"/>
      <point x="145" y="553"/>
      <point x="145" y="524" type="curve" smooth="yes"/>
      <point x="145" y="511" type="line" smooth="yes"/>
      <point x="145" y="482"/>
      <point x="123" y="460"/>
    </contour>
    <contour>
      <point x="1332" y="115" type="curve" smooth="yes"/>
      <point x="196" y="115" type="line"/>
      <point x="168" y="115"/>
      <point x="145" y="137"/>
      <point x="145" y="166" type="curve" smooth="yes"/>
      <point x="145" y="409" type="line" smooth="yes"/>
      <point x="145" y="438"/>
      <point x="168" y="460"/>
      <point x="196" y="460" type="curve" smooth="yes"/>
      <point x="1332" y="460" type="line" smooth="yes"/>
      <point x="1361" y="460"/>
      <point x="1383" y="438"/>
      <point x="1383" y="409" type="curve" smooth="yes"/>
      <point x="1383" y="166" type="line" smooth="yes"/>
      <point x="1383" y="137"/>
      <point x="1361" y="115"/>
    </contour>
  </outline>
</glyph>
<glyph name="f" format="2">
  <advance width="1528"/>
  <unicode hex="0066"/>
  <outline>
    <contour>
      <point x="1431" y="575" type="curve" smooth="yes"/>
      <point x="1453" y="575" type="line" smooth="yes"/>
      <point x="1478" y="575"/>
      <point x="1498" y="595"/>
      <point x="1498" y="619" type="curve" smooth="yes"/>
      <point x="1498" y="754" type="line" smooth="yes"/>
      <point x="1498" y="783"/>
      <point x="1476" y="805"/>
      <point x="1447" y="805" type="curve" smooth="yes"/>
      <point x="196" y="805" type="line" smooth="yes"/>
      <point x="167" y="805"/>
      <point x="145" y="783"/>
      <point x="145" y="754" type="curve" smooth="yes"/>
      <point x="145" y="741" type="line" smooth="yes"/>
      <point x="145" y="712"/>
      <point x="123" y="690"/>
      <point x="94" y="690" type="curve" smooth="yes"/>
      <point x="81" y="690" type="line" smooth="yes"/>
      <point x="52" y="690"/>
      <point x="30" y="668"/>
      <point x="30" y="639" type="curve" smooth="yes"/>
      <point x="30" y="626" type="line" smooth="yes"/>
      <point x="30" y="597"/>
      <point x="52" y="575"/>
      <point x="81" y="575" type="curve" smooth="yes"/>
      <point x="94" y="575" type="line" smooth="yes"/>
      <point x="123" y="575"/>
      <point x="145" y="553"/>
      <point x="145" y="524" type="curve" smooth="yes"/>
      <point x="145" y="511" type="line" smooth="yes"/>
      <point x="145" y="482"/>
      <point x="123" y="460"/>
      <point x="94" y="460" type="curve" smooth="yes"/>
      <point x="81" y="460" type="line" smooth="yes"/>
      <point x="52" y="460"/>
      <point x="30" y="438"/>
      <point x="30" y="409" type="curve" smooth="yes"/>
      <point x="30" y="42" type="line" smooth="yes"/>
      <point x="30" y="19"/>
      <point x="49" y="0"/>
      <point x="73" y="0" type="curve" smooth="yes"/>
      <point x="102" y="0" type="line" smooth="yes"/>
      <point x="126" y="0"/>
      <point x="145" y="19"/>
      <point x="145" y="42" type="curve" smooth="yes"/>
      <point x="145" y="409" type="line" smooth="yes"/>
      <point x="145" y="438"/>
      <point x="167" y="460"/>
      <point x="196" y="460" type="curve" smooth="yes"/>
      <point x="1339" y="460" type="line" smooth="yes"/>
      <point x="1368" y="460"/>
      <point x="1383" y="479"/>
      <point x="1383" y="503" type="curve" smooth="yes"/>
      <point x="1383" y="530" type="line" smooth="yes"/>
      <point x="1383" y="552"/>
      <point x="1368" y="575"/>
      <point x="1340" y="575" type="curve" smooth="yes"/>
      <point x="196" y="575" type="line" smooth="yes"/>
      <point x="167" y="575"/>
      <point x="145" y="597"/>
      <point x="145" y="626" type="curve" smooth="yes"/>
      <point x="145" y="638" type="line" smooth="yes"/>
      <point x="145" y="668"/>
      <point x="167" y="690"/>
      <point x="197" y="690" type="curve" smooth="yes"/>
      <point x="1333" y="690" type="line" smooth="yes"/>
      <point x="1362" y="690"/>
      <point x="1383" y="668"/>
      <point x="1383" y="639" type="curve" smooth="yes"/>
      <point x="1383" y="619" type="line" smooth="yes"/>
      <point x="1383" y="595"/>
      <point x="1405" y="575"/>
    </contour>
  </outline>
</glyph>
<glyph name="j" format="2">
  <advance width="1528"/>
  <unicode hex="006A"/>
  <outline>
    <contour>
      <point x="1332" y="0" type="curve" smooth="yes"/>
      <point x="81" y="0" type="line" smooth="yes"/>
      <point x="52" y="0"/>
      <point x="30" y="-22"/>
      <point x="30" y="-51" type="curve" smooth="yes"/>
      <point x="30" y="-64" type="line" smooth="yes"/>
      <point x="30" y="-93"/>
      <point x="52" y="-115"/>
      <point x="81" y="-115" type="curve" smooth="yes"/>
      <point x="1332" y="-115" type="line" smooth="yes"/>
      <point x="1361" y="-115"/>
      <point x="1383" y="-93"/>
      <point x="1383" y="-64" type="curve" smooth="yes"/>
      <point x="1383" y="-51" type="line" smooth="yes"/>
      <point x="1383" y="-22"/>
      <point x="1405" y="0"/>
      <point x="1434" y="0" type="curve" smooth="yes"/>
      <point x="1447" y="0" type="line" smooth="yes"/>
      <point x="1476" y="0"/>
      <point x="1498" y="22"/>
      <point x="1498" y="51" type="curve" smooth="yes"/>
      <point x="1498" y="409" type="line" smooth="yes"/>
      <point x="1498" y="438"/>
      <point x="1476" y="460"/>
      <point x="1447" y="460" type="curve" smooth="yes"/>
      <point x="1434" y="460" type="line" smooth="yes"/>
      <point x="1405" y="460"/>
      <point x="1383" y="438"/>
      <point x="1383" y="409" type="curve" smooth="yes"/>
      <point x="1383" y="51" type="line" smooth="yes"/>
      <point x="1383" y="22"/>
      <point x="1361" y="0"/>
    </contour>
    <contour>
      <point x="1382" y="639" type="curve" smooth="yes"/>
      <point x="1382" y="626" type="line" smooth="yes"/>
      <point x="1382" y="597"/>
      <point x="1404" y="575"/>
      <point x="1433" y="575" type="curve" smooth="yes"/>
      <point x="1446" y="575" type="line" smooth="yes"/>
      <point x="1475" y="575"/>
      <point x="1497" y="597"/>
      <point x="1497" y="626" type="curve" smooth="yes"/>
      <point x="1497" y="639" type="line" smooth="yes"/>
      <point x="1497" y="668"/>
      <point x="1475" y="690"/>
      <point x="1446" y="690" type="curve" smooth="yes"/>
      <point x="1433" y="690" type="line" smooth="yes"/>
      <point x="1404" y="690"/>
      <point x="1382" y="668"/>
    </contour>
  </outline>
</glyph>
<glyph name="l" format="2">
  <advance width="180"/>
  <unicode hex="006C"/>
  <outline>
    <contour>
      <point x="196" y="690" type="curve" smooth="yes"/>
      <point x="209" y="690" type="line" smooth="yes"/>
      <point x="238" y="690"/>
      <point x="260" y="712"/>
      <point x="260" y="741" type="curve" smooth="yes"/>
      <point x="260" y="754" type="line" smooth="yes"/>
      <point x="260" y="783"/>
      <point x="238" y="805"/>
      <point x="209" y="805" type="curve" smooth="yes"/>
      <point x="196" y="805" type="line" smooth="yes"/>
      <point x="167" y="805"/>
      <point x="145" y="783"/>
      <point x="145" y="754" type="curve" smooth="yes"/>
      <point x="145" y="741" type="line" smooth="yes"/>
      <point x="145" y="712"/>
      <point x="123" y="690"/>
      <point x="94" y="690" type="curve" smooth="yes"/>
      <point x="81" y="690" type="line" smooth="yes"/>
      <point x="52" y="690"/>
      <point x="30" y="668"/>
      <point x="30" y="639" type="curve" smooth="yes"/>
      <point x="30" y="51" type="line" smooth="yes"/>
      <point x="30" y="22"/>
      <point x="52" y="0"/>
      <point x="81" y="0" type="curve" smooth="yes"/>
      <point x="94" y="0" type="line" smooth="yes"/>
      <point x="123" y="0"/>
      <point x="145" y="22"/>
      <point x="145" y="51" type="curve" smooth="yes"/>
      <point x="145" y="639" type="line" smooth="yes"/>
      <point x="145" y="668"/>
      <point x="167" y="690"/>
    </contour>
  </outline>
</glyph>
<glyph name="m" format="2">
  <advance width="1528"/>
  <unicode hex="006D"/>
  <outline>
    <contour>
      <point x="30" y="51" type="curve" smooth="yes"/>
      <point x="30" y="524" type="line" smooth="yes"/>
      <point x="30" y="554"/>
      <point x="52" y="575"/>
      <point x="81" y="575" type="curve" smooth="yes"/>
      <point x="655" y="575" type="line" smooth="yes"/>
      <point x="684" y="575"/>
      <point x="705" y="553"/>
      <point x="705" y="524" type="curve" smooth="yes"/>
      <point x="705" y="511" type="line" smooth="yes"/>
      <point x="705" y="482"/>
      <point x="726" y="460"/>
      <point x="755" y="460" type="curve" smooth="yes"/>
      <point x="770" y="460" type="line" smooth="yes"/>
      <point x="799" y="460"/>
      <point x="820" y="482"/>
      <point x="820" y="511" type="curve" smooth="yes"/>
      <point x="820" y="524" type="line" smooth="yes"/>
      <point x="820" y="553"/>
      <point x="841" y="575"/>
      <point x="870" y="575" type="curve" smooth="yes"/>
      <point x="1332" y="575" type="line" smooth="yes"/>
      <point x="1361" y="575"/>
      <point x="1382" y="553"/>
      <point x="1382" y="524" type="curve" smooth="yes"/>
      <point x="1382" y="511" type="line" smooth="yes"/>
      <point x="1382" y="482"/>
      <point x="1403" y="460"/>
      <point x="1432" y="460" type="curve" smooth="yes"/>
      <point x="1447" y="460" type="line" smooth="yes"/>
      <point x="1476" y="460"/>
      <point x="1498" y="438"/>
      <point x="1498" y="409" type="curve" smooth="yes"/>
      <point x="1498" y="51" type="line" smooth="yes"/>
      <point x="1498" y="22"/>
      <point x="1476" y="0"/>
      <point x="1447" y="0" type="curve" smooth="yes"/>
      <point x="1432" y="0" type="line" smooth="yes"/>
      <point x="1403" y="0"/>
      <point x="1382" y="22"/>
      <point x="1382" y="51" type="curve" smooth="yes"/>
      <point x="1382" y="409" type="line" smooth="yes"/>
      <point x="1382" y="438"/>
      <point x="1361" y="460"/>
      <point x="1332" y="460" type="curve" smooth="yes"/>
      <point x="870" y="460" type="line" smooth="yes"/>
      <point x="841" y="460"/>
      <point x="820" y="438"/>
      <point x="820" y="409" type="curve" smooth="yes"/>
      <point x="820" y="51" type="line" smooth="yes"/>
      <point x="820" y="22"/>
      <point x="799" y="0"/>
      <point x="770" y="0" type="curve" smooth="yes"/>
      <point x="755" y="0" type="line" smooth="yes"/>
      <point x="726" y="0"/>
      <point x="705" y="22"/>
      <point x="705" y="51" type="curve" smooth="yes"/>
      <point x="705" y="409" type="line" smooth="yes"/>
      <point x="705" y="438"/>
      <point x="684" y="460"/>
      <point x="655" y="460" type="curve" smooth="yes"/>
      <point x="194" y="460" type="line" smooth="yes"/>
      <point x="165" y="460"/>
      <point x="144" y="438"/>
      <point x="144" y="409" type="curve" smooth="yes"/>
      <point x="144" y="51" type="line" smooth="yes"/>
      <point x="144" y="22"/>
      <point x="123" y="0"/>
      <point x="94" y="0" type="curve" smooth="yes"/>
      <point x="79" y="0" type="line" smooth="yes"/>
      <point x="50" y="0"/>
      <point x="30" y="22"/>
    </contour>
  </outline>
</glyph>
<glyph name="q" format="2">
  <advance width="1528"/>
  <unicode hex="0071"/>
  <outline>
    <contour>
      <point x="1332" y="460" type="curve" smooth="yes"/>
      <point x="1319" y="460" type="line" smooth="yes"/>
      <point x="1290" y="460"/>
      <point x="1268" y="482"/>
      <point x="1268" y="511" type="curve" smooth="yes"/>
      <point x="1268" y="524" type="line" smooth="yes"/>
      <point x="1268" y="553"/>
      <point x="1246" y="575"/>
      <point x="1217" y="575" type="curve" smooth="yes"/>
      <point x="197" y="575" type="line" smooth="yes"/>
      <point x="168" y="575"/>
      <point x="145" y="553"/>
      <point x="145" y="524" type="curve" smooth="yes"/>
      <point x="145" y="511" type="line" smooth="yes"/>
      <point x="145" y="482"/>
      <point x="123" y="460"/>
      <point x="94" y="460" type="curve" smooth="yes"/>
      <point x="81" y="460" type="line" smooth="yes"/>
      <point x="52" y="460"/>
      <point x="30" y="438"/>
      <point x="30" y="409" type="curve" smooth="yes"/>
      <point x="30" y="162" type="line" smooth="yes"/>
      <point x="30" y="133"/>
      <point x="52" y="114"/>
      <point x="81" y="114" type="curve" smooth="yes"/>
      <point x="94" y="114" type="line" smooth="yes"/>
      <point x="123" y="114"/>
      <point x="145" y="89"/>
      <point x="145" y="60" type="curve" smooth="yes"/>
      <point x="145" y="47" type="line" smooth="yes"/>
      <point x="145" y="18"/>
      <point x="168" y="0"/>
      <point x="197" y="0" type="curve" smooth="yes"/>
      <point x="1217" y="0" type="line" smooth="yes"/>
      <point x="1246" y="0"/>
      <point x="1268" y="22"/>
      <point x="1268" y="51" type="curve" smooth="yes"/>
      <point x="1268" y="63" type="line" smooth="yes"/>
      <point x="1268" y="92"/>
      <point x="1290" y="114"/>
      <point x="1319" y="114" type="curve" smooth="yes"/>
      <point x="1332" y="114" type="line" smooth="yes"/>
      <point x="1361" y="114"/>
      <point x="1383" y="92"/>
      <point x="1383" y="63" type="curve" smooth="yes"/>
      <point x="1383" y="-179" type="line" smooth="yes"/>
      <point x="1383" y="-208"/>
      <point x="1405" y="-230"/>
      <point x="1434" y="-230" type="curve" smooth="yes"/>
      <point x="1447" y="-230" type="line" smooth="yes"/>
      <point x="1476" y="-230"/>
      <point x="1498" y="-208"/>
      <point x="1498" y="-179" type="curve" smooth="yes"/>
      <point x="1498" y="64" type="line" smooth="yes"/>
      <point x="1498" y="93"/>
      <point x="1476" y="114"/>
      <point x="1447" y="114" type="curve" smooth="yes"/>
      <point x="1434" y="114" type="line" smooth="yes"/>
      <point x="1405" y="114"/>
      <point x="1383" y="137"/>
      <point x="1383" y="166" type="curve" smooth="yes"/>
      <point x="1383" y="409" type="line" smooth="yes"/>
      <point x="1383" y="438"/>
      <point x="1361" y="460"/>
    </contour>
    <contour>
      <point x="1268" y="409" type="curve" smooth="yes"/>
      <point x="1268" y="162" type="line" smooth="yes"/>
      <point x="1268" y="133"/>
      <point x="1246" y="114"/>
      <point x="1217" y="114" type="curve" smooth="yes"/>
      <point x="196" y="114" type="line" smooth="yes"/>
      <point x="167" y="114"/>
      <point x="145" y="133"/>
      <point x="145" y="162" type="curve" smooth="yes"/>
      <point x="145" y="409" type="line" smooth="yes"/>
      <point x="145" y="438"/>
      <point x="167" y="460"/>
      <point x="196" y="460" type="curve" smooth="yes"/>
      <point x="1217" y="460" type="line" smooth="yes"/>
      <point x="1246" y="460"/>
      <point x="1268" y="438"/>
    </contour>
  </outline>
</glyph>
<glyph name="t" format="2">
  <advance width="1528"/>
  <unicode hex="0074"/>
  <outline>
    <contour>
      <point x="30" y="409" type="curve" smooth="yes"/>
      <point x="30" y="166" type="line"/>
      <point x="30" y="137"/>
      <point x="52" y="115"/>
      <point x="81" y="115" type="curve" smooth="yes"/>
      <point x="94" y="115" type="line" smooth="yes"/>
      <point x="123" y="115"/>
      <point x="145" y="93"/>
      <point x="145" y="64" type="curve" smooth="yes"/>
      <point x="145" y="51" type="line" smooth="yes"/>
      <point x="145" y="22"/>
      <point x="167" y="0"/>
      <point x="196" y="0" type="curve" smooth="yes"/>
      <point x="1447" y="0" type="line" smooth="yes"/>
      <point x="1476" y="0"/>
      <point x="1498" y="22"/>
      <point x="1498" y="51" type="curve" smooth="yes"/>
      <point x="1498" y="64" type="line" smooth="yes"/>
      <point x="1498" y="93"/>
      <point x="1476" y="115"/>
      <point x="1447" y="115" type="curve" smooth="yes"/>
      <point x="196" y="115" type="line" smooth="yes"/>
      <point x="167" y="115"/>
      <point x="145" y="137"/>
      <point x="145" y="166" type="curve" smooth="yes"/>
      <point x="145" y="409" type="line" smooth="yes"/>
      <point x="145" y="438"/>
      <point x="167" y="460"/>
      <point x="196" y="460" type="curve" smooth="yes"/>
      <point x="209" y="460" type="line" smooth="yes"/>
      <point x="238" y="460"/>
      <point x="260" y="482"/>
      <point x="260" y="511" type="curve" smooth="yes"/>
      <point x="260" y="524" type="line" smooth="yes"/>
      <point x="260" y="553"/>
      <point x="238" y="575"/>
      <point x="209" y="575" type="curve" smooth="yes"/>
      <point x="196" y="575" type="line" smooth="yes"/>
      <point x="167" y="575"/>
      <point x="145" y="597"/>
      <point x="145" y="626" type="curve" smooth="yes"/>
      <point x="145" y="639" type="line" smooth="yes"/>
      <point x="145" y="668"/>
      <point x="123" y="690"/>
      <point x="94" y="690" type="curve" smooth="yes"/>
      <point x="81" y="690" type="line" smooth="yes"/>
      <point x="52" y="690"/>
      <point x="30" y="668"/>
      <point x="30" y="639" type="curve" smooth="yes"/>
      <point x="30" y="626" type="line" smooth="yes"/>
      <point x="30" y="597"/>
      <point x="52" y="575"/>
      <point x="81" y="575" type="curve" smooth="yes"/>
      <point x="94" y="575" type="line" smooth="yes"/>
      <point x="123" y="575"/>
      <point x="145" y="553"/>
      <point x="145" y="524" type="curve" smooth="yes"/>
      <point x="145" y="511" type="line" smooth="yes"/>
      <point x="145" y="482"/>
      <point x="123" y="460"/>
      <point x="94" y="460" type="curve" smooth="yes"/>
      <point x="81" y="460" type="line" smooth="yes"/>
      <point x="52" y="460"/>
      <point x="30" y="438"/>
    </contour>
  </outline>
</glyph>
<glyph name="u" format="2">
  <advance width="1528"/>
  <unicode hex="0075"/>
  <outline>
    <contour>
      <point x="30" y="524" type="curve" smooth="yes"/>
      <point x="30" y="162" type="line"/>
      <point x="30" y="133"/>
      <point x="52" y="115"/>
      <point x="81" y="115" type="curve" smooth="yes"/>
      <point x="94" y="115" type="line" smooth="yes"/>
      <point x="123" y="115"/>
      <point x="145" y="89"/>
      <point x="145" y="60" type="curve" smooth="yes"/>
      <point x="145" y="47" type="line" smooth="yes"/>
      <point x="145" y="18"/>
      <point x="168" y="0"/>
      <point x="197" y="0" type="curve" smooth="yes"/>
      <point x="1447" y="0" type="line" smooth="yes"/>
      <point x="1476" y="0"/>
      <point x="1498" y="22"/>
      <point x="1498" y="51" type="curve" smooth="yes"/>
      <point x="1498" y="524" type="line" smooth="yes"/>
      <point x="1498" y="553"/>
      <point x="1476" y="575"/>
      <point x="1447" y="575" type="curve" smooth="yes"/>
      <point x="1434" y="575" type="line" smooth="yes"/>
      <point x="1405" y="575"/>
      <point x="1383" y="553"/>
      <point x="1383" y="524" type="curve" smooth="yes"/>
      <point x="1383" y="162" type="line" smooth="yes"/>
      <point x="1383" y="133"/>
      <point x="1361" y="115"/>
      <point x="1332" y="115" type="curve" smooth="yes"/>
      <point x="196" y="115" type="line" smooth="yes"/>
      <point x="167" y="115"/>
      <point x="145" y="133"/>
      <point x="145" y="162" type="curve" smooth="yes"/>
      <point x="145" y="524" type="line" smooth="yes"/>
      <point x="145" y="553"/>
      <point x="123" y="575"/>
      <point x="94" y="575" type="curve" smooth="yes"/>
      <point x="81" y="575" type="line" smooth="yes"/>
      <point x="52" y="575"/>
      <point x="30" y="553"/>
    </contour>
  </outline>
</glyph>
<glyph name="w" format="2">
  <advance width="1528"/>
  <unicode hex="0077"/>
  <outline>
    <contour>
      <point x="30" y="51" type="curve" smooth="yes"/>
      <point x="30" y="524" type="line"/>
      <point x="30" y="553"/>
      <point x="50" y="575"/>
      <point x="79" y="575" type="curve" smooth="yes"/>
      <point x="94" y="575" type="line" smooth="yes"/>
      <point x="123" y="575"/>
      <point x="144" y="553"/>
      <point x="144" y="524" type="curve" smooth="yes"/>
      <point x="144" y="166" type="line" smooth="yes"/>
      <point x="144" y="137"/>
      <point x="165" y="115"/>
      <point x="194" y="115" type="curve" smooth="yes"/>
      <point x="655" y="115" type="line" smooth="yes"/>
      <point x="684" y="115"/>
      <point x="705" y="137"/>
      <point x="705" y="166" type="curve" smooth="yes"/>
      <point x="705" y="524" type="line" smooth="yes"/>
      <point x="705" y="553"/>
      <point x="726" y="575"/>
      <point x="755" y="575" type="curve" smooth="yes"/>
      <point x="770" y="575" type="line" smooth="yes"/>
      <point x="799" y="575"/>
      <point x="820" y="553"/>
      <point x="820" y="524" type="curve" smooth="yes"/>
      <point x="820" y="166" type="line" smooth="yes"/>
      <point x="820" y="137"/>
      <point x="841" y="115"/>
      <point x="870" y="115" type="curve" smooth="yes"/>
      <point x="1332" y="115" type="line" smooth="yes"/>
      <point x="1361" y="115"/>
      <point x="1382" y="137"/>
      <point x="1382" y="166" type="curve" smooth="yes"/>
      <point x="1382" y="524" type="line" smooth="yes"/>
      <point x="1382" y="553"/>
      <point x="1403" y="575"/>
      <point x="1432" y="575" type="curve" smooth="yes"/>
      <point x="1447" y="575" type="line" smooth="yes"/>
      <point x="1476" y="575"/>
      <point x="1498" y="553"/>
      <point x="1498" y="524" type="curve" smooth="yes"/>
      <point x="1498" y="166" type="line" smooth="yes"/>
      <point x="1498" y="137"/>
      <point x="1476" y="115"/>
      <point x="1447" y="115" type="curve" smooth="yes"/>
      <point x="1432" y="115" type="line" smooth="yes"/>
      <point x="1403" y="115"/>
      <point x="1382" y="93"/>
      <point x="1382" y="64" type="curve" smooth="yes"/>
      <point x="1382" y="51" type="line" smooth="yes"/>
      <point x="1382" y="22"/>
      <point x="1361" y="0"/>
      <point x="1332" y="0" type="curve" smooth="yes"/>
      <point x="870" y="0" type="line" smooth="yes"/>
      <point x="841" y="0"/>
      <point x="820" y="22"/>
      <point x="820" y="51" type="curve" smooth="yes"/>
      <point x="820" y="64" type="line" smooth="yes"/>
      <point x="820" y="93"/>
      <point x="799" y="115"/>
      <point x="770" y="115" type="curve" smooth="yes"/>
      <point x="755" y="115" type="line" smooth="yes"/>
      <point x="726" y="115"/>
      <point x="705" y="93"/>
      <point x="705" y="64" type="curve" smooth="yes"/>
      <point x="705" y="51" type="line" smooth="yes"/>
      <point x="705" y="22"/>
      <point x="684" y="0"/>
      <point x="655" y="0" type="curve" smooth="yes"/>
      <point x="81" y="0" type="line" smooth="yes"/>
      <point x="52" y="0"/>
      <point x="30" y="21"/>
    </contour>
  </outline>
</glyph>
<glyph name="f_f" format="2">
  <advance width="1528"/>
  <outline>
    <contour>
      <point x="30" y="409" type="curve" smooth="yes"/>
      <point x="30" y="42" type="line"/>
      <point x="30" y="19"/>
      <point x="49" y="0"/>
      <point x="73" y="0" type="curve" smooth="yes"/>
      <point x="102" y="0" type="line" smooth="yes"/>
      <point x="126" y="0"/>
      <point x="145" y="19"/>
      <point x="145" y="42" type="curve" smooth="yes"/>
      <point x="145" y="409" type="line" smooth="yes"/>
      <point x="145" y="438"/>
      <point x="167" y="460"/>
      <point x="196" y="460" type="curve" smooth="yes"/>
      <point x="646" y="460" type="line" smooth="yes"/>
      <point x="675" y="460"/>
      <point x="690" y="479"/>
      <point x="690" y="503" type="curve" smooth="yes"/>
      <point x="690" y="530" type="line" smooth="yes"/>
      <point x="690" y="552"/>
      <point x="675" y="575"/>
      <point x="647" y="575" type="curve" smooth="yes"/>
      <point x="196" y="575" type="line" smooth="yes"/>
      <point x="167" y="575"/>
      <point x="145" y="597"/>
      <point x="145" y="626" type="curve" smooth="yes"/>
      <point x="145" y="638" type="line" smooth="yes"/>
      <point x="145" y="668"/>
      <point x="167" y="690"/>
      <point x="197" y="690" type="curve" smooth="yes"/>
      <point x="640" y="690" type="line" smooth="yes"/>
      <point x="669" y="690"/>
      <point x="691" y="668"/>
      <point x="691" y="639" type="curve" smooth="yes"/>
      <point x="691" y="626" type="line" smooth="yes"/>
      <point x="691" y="597"/>
      <point x="713" y="575"/>
      <point x="742" y="575" type="curve" smooth="yes"/>
      <point x="755" y="575" type="line" smooth="yes"/>
      <point x="784" y="575"/>
      <point x="806" y="553"/>
      <point x="806" y="524" type="curve" smooth="yes"/>
      <point x="806" y="511" type="line" smooth="yes"/>
      <point x="806" y="482"/>
      <point x="784" y="460"/>
      <point x="755" y="460" type="curve" smooth="yes"/>
      <point x="742" y="460" type="line" smooth="yes"/>
      <point x="713" y="460"/>
      <point x="691" y="438"/>
      <point x="691" y="409" type="curve" smooth="yes"/>
      <point x="691" y="42" type="line" smooth="yes"/>
      <point x="691" y="19"/>
      <point x="710" y="0"/>
      <point x="734" y="0" type="curve" smooth="yes"/>
      <point x="763" y="0" type="line" smooth="yes"/>
      <point x="787" y="0"/>
      <point x="806" y="19"/>
      <point x="806" y="42" type="curve" smooth="yes"/>
      <point x="806" y="409" type="line" smooth="yes"/>
      <point x="806" y="438"/>
      <point x="828" y="460"/>
      <point x="857" y="460" type="curve" smooth="yes"/>
      <point x="1339" y="460" type="line" smooth="yes"/>
      <point x="1368" y="460"/>
      <point x="1383" y="479"/>
      <point x="1383" y="503" type="curve" smooth="yes"/>
      <point x="1383" y="530" type="line" smooth="yes"/>
      <point x="1383" y="552"/>
      <point x="1368" y="575"/>
      <point x="1340" y="575" type="curve" smooth="yes"/>
      <point x="857" y="575" type="line" smooth="yes"/>
      <point x="828" y="575"/>
      <point x="806" y="597"/>
      <point x="806" y="626" type="curve" smooth="yes"/>
      <point x="806" y="638" type="line" smooth="yes"/>
      <point x="806" y="668"/>
      <point x="828" y="690"/>
      <point x="858" y="690" type="curve" smooth="yes"/>
      <point x="1332" y="690" type="line" smooth="yes"/>
      <point x="1361" y="690"/>
      <point x="1383" y="668"/>
      <point x="1383" y="639" type="curve" smooth="yes"/>
      <point x="1383" y="626" type="line" smooth="yes"/>
      <point x="1383" y="597"/>
      <point x="1405" y="575"/>
      <point x="1434" y="575" type="curve" smooth="yes"/>
      <point x="1447" y="575" type="line" smooth="yes"/>
      <point x="1476" y="575"/>
      <point x="1498" y="597"/>
      <point x="1498" y="626" type="curve" smooth="yes"/>
      <point x="1498" y="754" type="line" smooth="yes"/>
      <point x="1498" y="783"/>
      <point x="1476" y="805"/>
      <point x="1447" y="805" type="curve" smooth="yes"/>
      <point x="857" y="805" type="line" smooth="yes"/>
      <point x="828" y="805"/>
      <point x="806" y="783"/>
      <point x="806" y="754" type="curve" smooth="yes"/>
      <point x="806" y="741" type="line" smooth="yes"/>
      <point x="806" y="712"/>
      <point x="784" y="690"/>
      <point x="755" y="690" type="curve" smooth="yes"/>
      <point x="742" y="690" type="line" smooth="yes"/>
      <point x="713" y="690"/>
      <point x="691" y="712"/>
      <point x="691" y="741" type="curve" smooth="yes"/>
      <point x="691" y="754" type="line" smooth="yes"/>
      <point x="691" y="783"/>
      <point x="668" y="805"/>
      <point x="639" y="805" type="curve" smooth="yes"/>
      <point x="81" y="805" type="line" smooth="yes"/>
      <point x="52" y="805"/>
      <point x="30" y="783"/>
      <point x="30" y="754" type="curve" smooth="yes"/>
      <point x="30" y="626" type="line" smooth="yes"/>
      <point x="30" y="597"/>
      <point x="52" y="575"/>
      <point x="81" y="575" type="curve" smooth="yes"/>
      <point x="94" y="575" type="line" smooth="yes"/>
      <point x="123" y="575"/>
      <point x="145" y="553"/>
      <point x="145" y="524" type="curve" smooth="yes"/>
      <point x="145" y="511" type="line" smooth="yes"/>
      <point x="145" y="482"/>
      <point x="123" y="460"/>
      <point x="94" y="460" type="curve" smooth="yes"/>
      <point x="81" y="460" type="line" smooth="yes"/>
      <point x="52" y="460"/>
      <point x="30" y="438"/>
    </contour>
  </outline>
</glyph>
<glyph name="f_i" format="2">
  <advance width="1528"/>
  <outline>
    <contour>
      <point x="856" y="575" type="curve" smooth="yes"/>
      <point x="1447" y="575" type="line"/>
      <point x="1476" y="575"/>
      <point x="1498" y="597"/>
      <point x="1498" y="626" type="curve" smooth="yes"/>
      <point x="1498" y="639" type="line" smooth="yes"/>
      <point x="1498" y="668"/>
      <point x="1476" y="690"/>
      <point x="1447" y="690" type="curve" smooth="yes"/>
      <point x="861" y="690" type="line" smooth="yes"/>
      <point x="832" y="690"/>
      <point x="810" y="712"/>
      <point x="810" y="741" type="curve" smooth="yes"/>
      <point x="810" y="754" type="line" smooth="yes"/>
      <point x="810" y="783"/>
      <point x="788" y="805"/>
      <point x="759" y="805" type="curve" smooth="yes"/>
      <point x="81" y="805" type="line" smooth="yes"/>
      <point x="52" y="805"/>
      <point x="30" y="783"/>
      <point x="30" y="754" type="curve" smooth="yes"/>
      <point x="30" y="626" type="line" smooth="yes"/>
      <point x="30" y="597"/>
      <point x="52" y="575"/>
      <point x="81" y="575" type="curve" smooth="yes"/>
      <point x="94" y="575" type="line" smooth="yes"/>
      <point x="123" y="575"/>
      <point x="145" y="553"/>
      <point x="145" y="524" type="curve" smooth="yes"/>
      <point x="145" y="511" type="line" smooth="yes"/>
      <point x="145" y="482"/>
      <point x="123" y="460"/>
      <point x="94" y="460" type="curve" smooth="yes"/>
      <point x="81" y="460" type="line" smooth="yes"/>
      <point x="52" y="460"/>
      <point x="30" y="438"/>
      <point x="30" y="409" type="curve" smooth="yes"/>
      <point x="30" y="42" type="line" smooth="yes"/>
      <point x="30" y="19"/>
      <point x="49" y="0"/>
      <point x="73" y="0" type="curve" smooth="yes"/>
      <point x="102" y="0" type="line" smooth="yes"/>
      <point x="126" y="0"/>
      <point x="145" y="19"/>
      <point x="145" y="42" type="curve" smooth="yes"/>
      <point x="145" y="419" type="line" smooth="yes"/>
      <point x="145" y="442"/>
      <point x="167" y="460"/>
      <point x="190" y="460" type="curve" smooth="yes"/>
      <point x="766" y="460" type="line" smooth="yes"/>
      <point x="795" y="460"/>
      <point x="810" y="480"/>
      <point x="810" y="504" type="curve" smooth="yes"/>
      <point x="810" y="532" type="line" smooth="yes"/>
      <point x="810" y="554"/>
      <point x="795" y="575"/>
      <point x="767" y="575" type="curve" smooth="yes"/>
      <point x="190" y="575" type="line" smooth="yes"/>
      <point x="169" y="575"/>
      <point x="145" y="591"/>
      <point x="145" y="619" type="curve" smooth="yes"/>
      <point x="145" y="646" type="line" smooth="yes"/>
      <point x="145" y="670"/>
      <point x="166" y="690"/>
      <point x="189" y="690" type="curve" smooth="yes"/>
      <point x="769" y="690" type="line" smooth="yes"/>
      <point x="792" y="690"/>
      <point x="810" y="668"/>
      <point x="810" y="644" type="curve" smooth="yes"/>
      <point x="810" y="618" type="line" smooth="yes"/>
      <point x="810" y="594"/>
      <point x="830" y="575"/>
    </contour>
    <contour>
      <point x="1383" y="410" type="curve" smooth="yes"/>
      <point x="1383" y="166" type="line" smooth="yes"/>
      <point x="1383" y="137"/>
      <point x="1361" y="115"/>
      <point x="1332" y="115" type="curve" smooth="yes"/>
      <point x="1319" y="115" type="line" smooth="yes"/>
      <point x="1290" y="115"/>
      <point x="1268" y="93"/>
      <point x="1268" y="64" type="curve" smooth="yes"/>
      <point x="1268" y="51" type="line" smooth="yes"/>
      <point x="1268" y="22"/>
      <point x="1290" y="0"/>
      <point x="1319" y="0" type="curve" smooth="yes"/>
      <point x="1332" y="0" type="line" smooth="yes"/>
      <point x="1361" y="0"/>
      <point x="1383" y="22"/>
      <point x="1383" y="51" type="curve" smooth="yes"/>
      <point x="1383" y="64" type="line" smooth="yes"/>
      <point x="1383" y="93"/>
      <point x="1405" y="115"/>
      <point x="1434" y="115" type="curve" smooth="yes"/>
      <point x="1447" y="115" type="line" smooth="yes"/>
      <point x="1476" y="115"/>
      <point x="1498" y="137"/>
      <point x="1498" y="166" type="curve" smooth="yes"/>
      <point x="1498" y="410" type="line" smooth="yes"/>
      <point x="1498" y="439"/>
      <point x="1476" y="460"/>
      <point x="1447" y="460" type="curve" smooth="yes"/>
      <point x="1434" y="460" type="line" smooth="yes"/>
      <point x="1404" y="460"/>
      <point x="1383" y="439"/>
    </contour>
  </outline>
</glyph>
<glyph name="f_l" format="2">
  <advance width="1498"/>
  <outline>
    <contour>
      <point x="30" y="409" type="curve" smooth="yes"/>
      <point x="30" y="42" type="line"/>
      <point x="30" y="19"/>
      <point x="49" y="0"/>
      <point x="73" y="0" type="curve" smooth="yes"/>
      <point x="102" y="0" type="line" smooth="yes"/>
      <point x="126" y="0"/>
      <point x="145" y="19"/>
      <point x="145" y="42" type="curve" smooth="yes"/>
      <point x="145" y="419" type="line" smooth="yes"/>
      <point x="145" y="442"/>
      <point x="167" y="460"/>
      <point x="190" y="460" type="curve" smooth="yes"/>
      <point x="756" y="460" type="line" smooth="yes"/>
      <point x="785" y="460"/>
      <point x="800" y="480"/>
      <point x="800" y="504" type="curve" smooth="yes"/>
      <point x="800" y="532" type="line" smooth="yes"/>
      <point x="800" y="554"/>
      <point x="785" y="575"/>
      <point x="757" y="575" type="curve" smooth="yes"/>
      <point x="190" y="575" type="line" smooth="yes"/>
      <point x="169" y="575"/>
      <point x="145" y="591"/>
      <point x="145" y="619" type="curve" smooth="yes"/>
      <point x="145" y="646" type="line" smooth="yes"/>
      <point x="145" y="670"/>
      <point x="166" y="690"/>
      <point x="189" y="690" type="curve" smooth="yes"/>
      <point x="759" y="690" type="line" smooth="yes"/>
      <point x="782" y="690"/>
      <point x="800" y="668"/>
      <point x="800" y="644" type="curve" smooth="yes"/>
      <point x="800" y="618" type="line" smooth="yes"/>
      <point x="800" y="594"/>
      <point x="820" y="575"/>
      <point x="846" y="575" type="curve" smooth="yes"/>
      <point x="1332" y="575" type="line" smooth="yes"/>
      <point x="1361" y="575"/>
      <point x="1383" y="553"/>
      <point x="1383" y="524" type="curve" smooth="yes"/>
      <point x="1383" y="50" type="line" smooth="yes"/>
      <point x="1383" y="21"/>
      <point x="1404" y="0"/>
      <point x="1434" y="0" type="curve" smooth="yes"/>
      <point x="1447" y="0" type="line" smooth="yes"/>
      <point x="1476" y="0"/>
      <point x="1498" y="21"/>
      <point x="1498" y="50" type="curve" smooth="yes"/>
      <point x="1498" y="524" type="line" smooth="yes"/>
      <point x="1498" y="553"/>
      <point x="1476" y="575"/>
      <point x="1447" y="575" type="curve" smooth="yes"/>
      <point x="1434" y="575" type="line" smooth="yes"/>
      <point x="1405" y="575"/>
      <point x="1383" y="597"/>
      <point x="1383" y="626" type="curve" smooth="yes"/>
      <point x="1383" y="639" type="line" smooth="yes"/>
      <point x="1383" y="668"/>
      <point x="1361" y="690"/>
      <point x="1332" y="690" type="curve" smooth="yes"/>
      <point x="851" y="690" type="line" smooth="yes"/>
      <point x="822" y="690"/>
      <point x="800" y="712"/>
      <point x="800" y="741" type="curve" smooth="yes"/>
      <point x="800" y="754" type="line" smooth="yes"/>
      <point x="800" y="783"/>
      <point x="778" y="805"/>
      <point x="749" y="805" type="curve" smooth="yes"/>
      <point x="81" y="805" type="line" smooth="yes"/>
      <point x="52" y="805"/>
      <point x="30" y="783"/>
      <point x="30" y="754" type="curve" smooth="yes"/>
      <point x="30" y="626" type="line" smooth="yes"/>
      <point x="30" y="597"/>
      <point x="52" y="575"/>
      <point x="81" y="575" type="curve" smooth="yes"/>
      <point x="94" y="575" type="line" smooth="yes"/>
      <point x="123" y="575"/>
      <point x="145" y="553"/>
      <point x="145" y="524" type="curve" smooth="yes"/>
      <point x="145" y="511" type="line" smooth="yes"/>
      <point x="145" y="482"/>
      <point x="123" y="460"/>
      <point x="94" y="460" type="curve" smooth="yes"/>
      <point x="81" y="460" type="line" smooth="yes"/>
      <point x="52" y="460"/>
      <point x="30" y="438"/>
    </contour>
  </outline>
</glyph>
